<?xml version="1.0" standalone="no"?><!DOCTYPE svg PUBLIC "-//W3C//DTD SVG 1.1//EN" "http://www.w3.org/Graphics/SVG/1.1/DTD/svg11.dtd"><svg class="icon" width="200px" height="200.00px" viewBox="0 0 1024 1024" version="1.1" xmlns="http://www.w3.org/2000/svg"><path d="M803.801319 615.095847h-230.243434c-13.245649 0-23.984203 10.73753-23.984203 23.984203 0 13.245649 10.73753 23.984203 23.984203 23.984202h230.243434c13.245649 0 23.984203-10.73753 23.984203-23.984202 0-13.245649-10.73753-23.984203-23.984203-23.984203zM549.574705 383.254011c0 13.245649 10.73753 23.984203 23.984203 23.984203h230.243434c13.245649 0 23.984203-10.73753 23.984203-23.984203 0-13.245649-10.73753-23.984203-23.984203-23.984202h-230.243434c-13.246672 0.001023-23.984203 10.738554-23.984203 23.984202zM803.801319 487.183851h-230.243434c-13.245649 0-23.984203 10.73753-23.984203 23.983179s10.73753 23.984203 23.984203 23.984203h230.243434c13.245649 0 23.984203-10.73753 23.984203-23.984203s-10.73753-23.983179-23.984203-23.983179z"  /><path d="M654.069409 247.013343c0-13.245649-10.73753-23.984203-23.984203-23.984203h-94.714986c-65.471 0-118.698165 53.08595-118.698165 118.521134v224.116912c-22.964992-19.050853-52.436151-30.516976-84.575065-30.516976h-3.147684c-73.120198 0-132.734828 59.50616-132.734828 132.909813 0 73.254251 59.427365 132.909813 132.734828 132.909814h3.147684c73.120198 0 132.734828-59.50616 132.734828-132.909814 0-2.417044-0.064468-4.818739-0.192381-7.205084V341.550274c0-38.91421 31.722429-70.553751 70.730783-70.553752h94.714986c13.245649 0.001023 23.984203-10.73753 23.984203-23.983179zM332.098013 753.002454h-3.147683c-46.741464 0-84.767446-38.104777-84.767446-84.942431 0-46.850957 38.078171-84.942431 84.767446-84.942431h3.147683c46.741464 0 84.767446 38.1058 84.767446 84.942431-0.001023 46.850957-38.078171 84.942431-84.767446 84.942431z"  /></svg>